<svg width="1440" height="243" viewBox="0 0 1440 243" fill="none" xmlns="http://www.w3.org/2000/svg">
<mask id="mask0_157_24" style="mask-type:luminance" maskUnits="userSpaceOnUse" x="773" y="0" width="668" height="243">
<path d="M773 0H1441V243H773V0Z" fill="white"/>
</mask>
<g mask="url(#mask0_157_24)">
<mask id="mask1_157_24" style="mask-type:luminance" maskUnits="userSpaceOnUse" x="773" y="-1" width="668" height="245">
<path d="M1441 -0.557922H773V243.313H1441V-0.557922Z" fill="white"/>
</mask>
<g mask="url(#mask1_157_24)">
<mask id="mask2_157_24" style="mask-type:luminance" maskUnits="userSpaceOnUse" x="773" y="0" width="668" height="243">
<path d="M773 6.10352e-05H1441V242.755H773V6.10352e-05Z" fill="white"/>
</mask>
<g mask="url(#mask2_157_24)">
<path fill-rule="evenodd" clip-rule="evenodd" d="M1280.65 46.7102C1282.78 44.3241 1284.99 41.5615 1286.97 38.5131C1293.82 27.939 1297.87 13.9945 1286.9 0.5126C1286.71 0.290322 1286.44 0.163306 1286.15 0.167842C1285.86 0.172378 1285.58 0.313003 1285.41 0.544354C1285.41 0.544354 1272.61 17.6008 1278.6 46.1613C1273.85 51.3463 1269.64 54.5035 1269.64 54.5035L1269.51 54.6215C1269.15 55.0161 1268.84 55.438 1268.58 55.8916C1265.13 56.0776 1261.99 55.692 1259.19 54.8256L1259.15 54.4264L1259.12 54.2041C1263.48 51.8407 1264.33 47.1275 1263.15 41.5615C1260.51 28.9914 1247.49 11.9894 1247.49 11.9894C1247.3 11.7354 1246.99 11.5993 1246.67 11.6265C1246.35 11.6492 1246.07 11.8352 1245.92 12.121C1238.04 26.8684 1240.31 43.9249 1250.71 52.4078C1252.67 54.0091 1254.93 55.311 1257.46 56.2364C1257.86 59.5025 1258.77 65.504 1260.53 71.5736C1261.43 74.6809 1262.55 77.8019 1263.94 80.5872C1243.26 60.0741 1223.23 64.7193 1223.23 64.7193C1222.75 64.8281 1222.43 65.2818 1222.5 65.7626C1223.9 76.3866 1231.77 82.066 1240.77 85.001C1251.67 88.5575 1264.21 88.0539 1268.19 87.7727C1270.7 88.9566 1293.84 100.52 1298.98 127.565C1296.23 126.263 1290.64 124.24 1284.87 125.846C1283.94 125.474 1280.85 124.185 1276.81 122.022C1279.94 108.29 1272.65 100.238 1264.48 95.6205C1256.33 91.0116 1247.3 89.882 1247.3 89.882C1247 89.8412 1246.7 89.9501 1246.5 90.1724C1246.29 90.3947 1246.2 90.7031 1246.26 91.0025C1248.18 100.592 1254.69 108.426 1261.86 114.351C1265.6 117.445 1269.5 120.017 1273 122.049C1269.26 122.661 1261.79 123.591 1253.47 123.006C1248.96 109.03 1242.21 101.359 1235.74 97.1628C1225.74 90.6804 1216.32 92.4496 1216.32 92.4496C1215.83 92.5449 1215.49 93.003 1215.55 93.502C1218.23 114.596 1233.4 122.099 1247.92 124.294C1249.48 124.53 1251.02 124.703 1252.54 124.825C1254.17 125.524 1269.69 132.079 1281.46 135.549C1285.37 136.706 1288.88 137.495 1291.4 137.667C1290.67 138.352 1289.71 139.201 1288.53 140.112C1262.12 127.116 1233.77 132.369 1233.77 132.369C1233.42 132.432 1233.14 132.686 1233.04 133.027C1232.94 133.367 1233.04 133.734 1233.29 133.979C1247.43 147.42 1260.03 150.6 1270.04 149.643C1278.1 148.867 1284.5 145.393 1288.72 142.317C1291.61 143.8 1294.48 145.511 1297.26 147.479C1297.99 149.099 1302.44 159.351 1303.61 171.254C1304.46 179.805 1303.61 189.231 1298.38 196.861C1294.18 202.972 1290.22 209.314 1283.45 215.17C1267.59 228.901 1236.46 239.902 1151.72 239.403H1151.69C1138.63 239.775 794.423 241.281 774.015 240.21C773.498 240.183 773.05 240.582 773.023 241.104C772.996 241.621 773.394 242.066 773.915 242.093C794.324 243.168 1138.33 241.666 1151.72 241.29C1237.28 241.793 1268.68 230.462 1284.69 216.594C1291.59 210.624 1295.65 204.165 1299.93 197.932C1305.43 189.921 1306.37 180.045 1305.49 171.068C1304.18 157.749 1298.87 146.454 1298.87 146.454L1298.56 146.087C1295.89 144.181 1293.14 142.517 1290.37 141.051C1293.02 138.919 1294.44 137.236 1294.44 137.236C1294.71 136.928 1294.74 136.479 1294.53 136.13C1294.31 135.78 1293.9 135.612 1293.5 135.708C1291.44 136.211 1287.09 135.245 1281.99 133.739C1273.85 131.335 1263.89 127.443 1258.06 125.075C1266.85 125.156 1273.96 123.832 1275.59 123.5C1280.74 126.295 1284.49 127.724 1284.49 127.724C1284.68 127.796 1284.9 127.805 1285.09 127.746C1292.53 125.506 1299.74 130.092 1299.74 130.092C1300.05 130.291 1300.45 130.287 1300.76 130.083C1301.07 129.883 1301.23 129.516 1301.17 129.153C1297.05 102.62 1276.26 89.8684 1270.31 86.7339C1270.31 86.4753 1270.21 86.2258 1270.02 86.0443C1266.44 82.6512 1264.01 76.813 1262.34 71.0474C1260.76 65.5948 1259.88 60.192 1259.44 56.8669C1261.99 57.561 1264.79 57.9012 1267.83 57.815C1267.59 58.7722 1267.52 59.811 1267.59 60.9224C1267.74 63.2404 1268.53 65.8669 1269.75 68.625C1275.24 81.068 1289.52 96.2238 1289.52 96.2238C1289.74 96.4597 1290.06 96.564 1290.38 96.505C1291.98 96.192 1293.42 95.7203 1294.74 95.1079C1295.79 98.2923 1296.62 100.27 1296.62 100.27C1296.63 100.311 1296.65 100.347 1296.67 100.384L1300.93 107.737L1302.38 107.968C1305.3 105.333 1308.05 102.761 1310.64 100.261C1312.38 100.338 1314.06 100.356 1315.72 100.32C1315.62 100.474 1315.55 100.592 1315.51 100.674C1309.63 106.176 1308.78 114.836 1309.98 123.292C1311.75 135.726 1317.88 147.652 1317.88 147.652C1318.06 148.001 1318.43 148.201 1318.82 148.16C1319.21 148.119 1319.53 147.838 1319.63 147.461C1320.38 144.581 1323.21 141.954 1326.27 139.786C1330.6 136.719 1335.47 134.614 1336.39 134.233C1347.85 133.834 1357.31 128.912 1363.44 123.51C1367.18 120.212 1369.68 116.723 1370.69 113.952C1372.13 114.432 1373.53 114.823 1374.88 115.131C1374.81 115.371 1374.77 115.53 1374.75 115.598C1369.72 131.643 1350.17 141.156 1350.17 141.156C1349.93 141.278 1349.74 141.501 1349.68 141.768C1349.61 142.036 1349.66 142.322 1349.82 142.548C1351.29 144.649 1354.62 147.361 1357.85 149.72C1351.78 149.775 1344.44 149.802 1339.18 150.419C1337.24 150.646 1335.57 150.954 1334.33 151.362C1333.38 151.68 1332.66 152.07 1332.2 152.506C1325.04 159.301 1322.69 169.072 1322.49 178.367C1322.19 192.116 1326.59 204.782 1326.59 204.782L1326.63 204.882C1333.3 218.785 1346.12 226.601 1361.85 231.119C1385.11 237.792 1414.77 237.243 1439.95 238.958C1440.47 238.994 1440.92 238.6 1440.96 238.083C1441 237.561 1440.6 237.112 1440.08 237.076C1415.02 235.37 1385.51 235.942 1362.37 229.305C1347.21 224.95 1334.79 217.497 1328.35 204.11C1328.06 203.253 1324.09 191.323 1324.38 178.408C1324.56 169.603 1326.71 160.317 1333.49 153.876C1333.8 153.59 1334.29 153.367 1334.93 153.154C1336.07 152.778 1337.61 152.501 1339.4 152.292C1345.38 151.594 1354.08 151.657 1360.48 151.58C1362.52 152.982 1364.26 154.102 1365.12 154.642C1365.28 154.951 1365.6 155.141 1365.95 155.141C1365.95 155.141 1376.17 155.096 1386.26 151.022C1396.5 146.894 1406.59 138.67 1406.1 122.357C1406.09 122.049 1405.93 121.763 1405.67 121.595C1405.41 121.427 1405.09 121.396 1404.8 121.509C1404.8 121.509 1386.08 128.962 1371.65 145.438C1372.54 142.467 1372.63 137.994 1370.79 131.253C1370.71 130.963 1370.5 130.727 1370.22 130.618C1369.93 130.514 1369.61 130.545 1369.36 130.713C1369.36 130.713 1365.09 133.517 1363.33 139.3C1362.5 142.054 1362.23 145.492 1363.29 149.639C1362.57 149.657 1361.81 149.675 1361.01 149.684C1357.8 147.466 1354.03 144.631 1352.03 142.312C1356.22 140.031 1372.03 130.613 1376.56 116.143C1376.56 116.124 1376.57 116.106 1376.57 116.088C1376.57 116.088 1376.63 115.88 1376.74 115.503C1383.26 116.651 1388.71 115.834 1393.23 113.961C1407.3 108.113 1412.27 91.8281 1412.27 91.8281C1412.35 91.5559 1412.3 91.2611 1412.14 91.0252C1411.99 90.7893 1411.73 90.6351 1411.45 90.6124C1386.94 88.3352 1377.92 106.725 1375.48 113.33C1374.03 113.008 1372.52 112.586 1370.95 112.051C1370.84 110.722 1370.6 107.174 1370.86 102.207C1407 75.8513 1404.95 39.0121 1404.95 39.0121C1404.94 38.6719 1404.74 38.3634 1404.43 38.2137C1404.12 38.064 1403.76 38.0912 1403.48 38.2863C1375.95 57.3432 1370.05 85.4955 1369.04 101.196C1366.14 103.273 1363 105.278 1359.59 107.193C1359.58 107.193 1359.58 107.193 1359.58 107.193C1359.58 107.193 1357.47 108.404 1354.42 109.697C1360.65 101.164 1360.17 92.2727 1360.17 92.2727C1360.15 91.9824 1360.01 91.7147 1359.77 91.5469C1359.53 91.379 1359.23 91.3337 1358.95 91.4199C1350.49 94.0146 1345.82 98.1063 1343.24 102.048C1339.29 108.1 1340.22 113.879 1340.22 113.879C1340.29 114.319 1340.66 114.655 1341.11 114.677C1343.23 114.782 1345.53 114.451 1347.79 113.906C1344.63 116.487 1340.53 118.801 1335.19 120.47C1333.71 117.585 1331 115.471 1327.95 113.961C1321.55 110.79 1313.7 110.245 1313.7 110.245C1313.41 110.227 1313.14 110.336 1312.94 110.545C1312.75 110.758 1312.66 111.044 1312.7 111.325C1315.08 127.306 1333.15 123.011 1333.16 123.006C1333.48 122.924 1333.78 122.843 1334.09 122.761C1334.31 123.473 1334.44 124.235 1334.48 125.047C1334.48 125.061 1334.48 125.079 1334.48 125.093L1335.18 132.696C1333.55 133.403 1329.15 135.435 1325.18 138.243C1322.48 140.158 1320 142.444 1318.65 144.907C1316.91 141.133 1313.15 132.224 1311.85 123.029C1310.73 115.158 1311.36 107.052 1316.88 101.967C1316.95 101.903 1317.01 101.831 1317.06 101.749C1317.06 101.749 1317.38 101.205 1317.99 100.234C1362.54 97.7661 1375.73 53.442 1375.73 53.442C1375.82 53.1381 1375.76 52.8115 1375.56 52.5711C1375.36 52.3261 1375.05 52.1991 1374.73 52.2354C1361.55 53.6235 1349.38 61.6845 1339.54 70.8931C1328.31 81.4037 1320.13 93.3795 1316.92 98.3921C1315.49 98.4511 1314.02 98.4692 1312.52 98.433C1333.05 78.31 1343.28 62.442 1348.25 49.0464C1354.01 33.5413 1352.73 21.316 1352.08 9.57611C1352.06 9.25857 1351.89 8.97278 1351.61 8.81401C1351.34 8.65524 1351 8.64163 1350.72 8.78679C1294.94 36.8075 1308.2 96.7455 1308.82 99.3992C1306.65 101.486 1304.37 103.609 1301.98 105.782L1298.34 99.4899C1298.2 99.1452 1297.4 97.1809 1296.42 94.2051C1302.05 90.7666 1304.9 84.4521 1306.16 77.5524C1308.56 64.4199 1305.18 49.2369 1305.18 49.2369C1305.12 48.9874 1304.96 48.7697 1304.74 48.6381C1304.52 48.502 1304.26 48.4657 1304.01 48.5338C1293.58 51.3916 1290.28 60.3553 1290.17 70.1492C1290.08 78.4551 1292.29 87.3372 1294.15 93.2888C1293.05 93.8241 1291.85 94.2505 1290.53 94.5454C1288.31 92.1366 1276.35 78.9133 1271.47 67.8629C1270.35 65.3316 1269.61 62.9274 1269.47 60.7999C1269.4 59.6704 1269.5 58.6225 1269.83 57.6971C1273.52 57.375 1277.54 56.4451 1281.87 54.8075C1320.09 46.5242 1323 18.5943 1323 18.5943C1323.03 18.3266 1322.94 18.0544 1322.75 17.8548C1322.57 17.6552 1322.31 17.5418 1322.04 17.5509C1306.72 17.9773 1296.36 27.0045 1289.84 35.9501C1285.59 41.7883 1282.98 47.5812 1281.69 50.87C1281.3 49.4592 1280.95 48.0711 1280.65 46.7102ZM1404.22 123.813C1404.09 138.189 1394.87 145.52 1385.56 149.271C1378.51 152.115 1371.4 152.927 1368 153.159C1380.3 135.395 1399.18 126.073 1404.22 123.813ZM1367.41 150.727C1367 151.29 1366.6 151.861 1366.21 152.442C1366.05 152.056 1365.9 151.68 1365.77 151.308C1366.26 151.195 1366.83 151.013 1367.41 150.727ZM1363.72 151.517L1363.85 151.512L1363.88 151.616L1363.72 151.517ZM1369.34 133.163C1371.37 141.491 1370.19 145.66 1368.31 147.738C1367.27 148.881 1366.05 149.326 1365.21 149.503C1364.15 145.624 1364.36 142.412 1365.14 139.849C1366.16 136.506 1368.12 134.283 1369.34 133.163ZM1236.02 133.934C1242.61 133.068 1265.26 131.108 1286.81 141.373C1282.81 144.136 1277.03 147.076 1269.86 147.761C1260.58 148.654 1249.02 145.746 1236.02 133.934ZM1368.14 115.027C1366.95 117.209 1364.91 119.695 1362.19 122.094C1357.02 126.658 1349.35 130.863 1340.07 132.042L1368.14 115.027ZM1368.92 103.591C1368.76 107.918 1368.97 110.998 1369.08 112.246L1336.98 131.707L1336.36 124.938C1336.32 123.972 1336.16 123.07 1335.9 122.226C1343.25 119.903 1348.38 116.428 1351.96 112.65C1356.74 110.962 1360.51 108.839 1360.51 108.839C1363.51 107.156 1366.32 105.401 1368.92 103.591ZM1217.55 94.2006C1220.01 93.9783 1227.18 93.8649 1234.71 98.746C1240.81 102.697 1247.11 109.896 1251.43 122.834C1250.37 122.725 1249.29 122.593 1248.21 122.43C1234.64 120.375 1220.42 113.507 1217.55 94.2006ZM1314.79 112.25C1317.15 112.532 1322.52 113.38 1327.11 115.653C1329.68 116.923 1332.01 118.647 1333.34 121.01C1333.13 121.065 1332.92 121.119 1332.71 121.178C1332.71 121.178 1317.6 124.916 1314.79 112.25ZM1248.41 91.9687C1251.15 92.4587 1257.59 93.8967 1263.55 97.2671C1270.98 101.468 1277.66 108.73 1275.09 121.074C1271.4 118.991 1267.12 116.261 1263.06 112.895C1256.55 107.515 1250.56 100.52 1248.41 91.9687ZM1377.36 113.693C1379.74 107.397 1388.09 90.9617 1410.07 92.3952C1408.71 96.0423 1403.63 107.592 1392.5 112.214C1388.34 113.943 1383.34 114.691 1377.36 113.693ZM1358.27 93.6245C1358.11 96.5912 1357.07 104.294 1350.78 111.094C1347.97 112.046 1344.87 112.799 1342.03 112.808C1341.96 111.175 1342.13 107.202 1344.82 103.083C1347.09 99.6033 1351.14 96.0469 1358.27 93.6245ZM1403.08 40.8811C1403.01 44.5872 1402.34 53.746 1398.01 64.7555C1393.69 75.7651 1385.71 88.6255 1371.03 99.7303C1372.27 84.4657 1378.3 58.8448 1403.08 40.8811ZM1373.46 54.2949C1370.85 61.6074 1356.81 95.371 1319.26 98.256C1322.82 92.808 1330.53 81.9118 1340.83 72.2722C1350 63.6804 1361.24 56.064 1373.46 54.2949ZM1350.28 11.1275C1350.94 22.2051 1351.89 33.8226 1346.49 48.3886C1341.52 61.7797 1331.19 77.6431 1310.42 97.8568C1308.72 89.3332 1300.6 37.0388 1350.28 11.1275ZM1303.54 50.6477C1304.22 54.1678 1306.28 66.4022 1304.3 77.2122C1303.17 83.3906 1300.73 89.1245 1295.83 92.3407C1294.04 86.5433 1291.97 78.0877 1292.05 70.1673C1292.15 61.5484 1294.8 53.5373 1303.54 50.6477ZM1224.51 66.4158C1228.73 65.8216 1247.78 64.565 1266.41 85.9899C1261.42 86.2303 1250.76 86.2757 1241.35 83.2046C1233.29 80.5781 1226.12 75.6517 1224.51 66.4158ZM1279.1 48.3886C1279.49 49.999 1279.93 51.6457 1280.44 53.3241C1277.18 54.5035 1274.12 55.2566 1271.25 55.6376C1272.42 54.7167 1275.54 52.1401 1279.1 48.3886ZM1246.9 14.3437C1249.84 18.3674 1259.15 31.6724 1261.31 41.9516C1262.33 46.7782 1261.78 50.9289 1257.73 52.7888C1257.37 52.9567 1257.15 53.3286 1257.18 53.7278C1257.18 53.7278 1257.19 53.8639 1257.22 54.1179C1255.25 53.3014 1253.48 52.2308 1251.9 50.9471C1242.43 43.2172 1240.3 27.9073 1246.9 14.3437ZM1320.94 19.4879C1319.93 24.496 1313.91 45.2722 1283.05 52.6028C1284.1 49.754 1286.72 43.4395 1291.36 37.066C1297.42 28.7419 1306.93 20.2999 1320.94 19.4879ZM1286.23 2.72177C1295.56 15.0922 1291.67 27.7939 1285.38 37.4834C1283.75 40.0101 1281.95 42.3327 1280.17 44.3967C1275.84 21.6064 1283.77 6.66381 1286.23 2.72177Z" fill="#BA9470"/>
</g>
</g>
</g>
<line x1="774.1" y1="240.9" x2="0.900024" y2="240.9" stroke="#BA9470" stroke-width="1.8" stroke-linecap="round"/>
</svg>
