<svg width="2000" height="2000" viewBox="0 0 2000 2000" fill="none" xmlns="http://www.w3.org/2000/svg">
<path fill-rule="evenodd" clip-rule="evenodd" d="M1030.51 272.686C1030.13 261.633 1023.28 266.735 1019.9 270.668C1019.3 272.231 1018.71 273.766 1018.13 275.275C989.969 348.685 985.644 359.96 980.497 417.263C979.101 432.805 978.673 460.486 979.595 475.56C981.568 507.806 987.494 538.544 997.099 566.355C1020.33 633.628 1079.01 677.148 1166.34 691.892C1186.16 695.237 1204.87 696.683 1228.44 696.689C1259.59 696.697 1287.1 693.888 1316.33 687.715C1337.57 683.229 1359.63 682.526 1381.12 685.651C1432.89 693.181 1481.17 722.846 1515.23 768.051C1541.72 803.215 1557.64 843.621 1562.29 887.453C1563.84 902.179 1563.6 935.962 1561.8 953.598C1554.24 1027.91 1519.4 1097.92 1466.31 1145.48C1454.18 1156.35 1439.18 1167.5 1426.42 1175.15L1424.64 1176.22L1425.64 1174.6C1426.64 1172.99 1426.62 1173 1420.06 1176.75C1413.16 1180.68 1406.25 1184.17 1392.78 1190.5C1361.32 1205.29 1330.08 1213.37 1294.36 1215.94C1285.6 1216.57 1262.56 1216.57 1254 1215.95C1223.15 1213.69 1195.1 1208.31 1163.8 1198.65C1136.04 1190.08 1109.7 1179.34 1079.58 1164.3C1056.72 1152.9 1036.32 1141.34 1012.66 1126.4C1008.04 1123.48 999.566 1118.18 993.829 1114.63C988.092 1111.07 971.127 1100.32 956.13 1090.75C941.132 1081.17 928.622 1073.34 928.33 1073.35C926.981 1073.41 902.099 1082.13 902.159 1082.53C902.288 1083.37 967.147 1127.34 985.64 1139.11C991.065 1142.57 1000.04 1148.43 1005.59 1152.13C1080.74 1202.29 1158.18 1234.45 1229.34 1245.04C1282.97 1253.03 1333.93 1249.05 1379.52 1233.33C1396.78 1227.38 1424.33 1214.98 1440.05 1206.07C1443.27 1204.25 1444.09 1203.61 1443.47 1203.39C1442.85 1203.17 1443.77 1202.45 1447.31 1200.38C1482.82 1179.65 1517.51 1146.53 1542.59 1109.43C1575.77 1060.35 1595.77 1002.16 1599.22 944.629C1599.95 932.547 1600.27 897.714 1599.73 889.92C1597.47 857.427 1589.16 827.072 1574.13 796.42C1563.63 775.014 1551.82 757.028 1535.73 737.948C1530.12 731.292 1512.24 713.34 1505.59 707.699C1466.94 674.862 1423.66 655.421 1377.98 650.374C1369.58 649.446 1343.38 649.584 1335.16 650.6C1326.59 651.66 1318.18 653.213 1309.36 655.362C1305.41 656.326 1298.15 657.832 1293.22 658.709C1243.38 667.577 1194.99 667.892 1153.56 659.618C1087.09 646.34 1041.29 611.881 1020.39 559.418C1009.91 533.137 1003.11 502.482 1000.18 468.385C999.414 459.416 999.135 429.484 999.718 418.384C1002.73 360.977 1005.11 348.055 1030.51 272.686ZM568.415 671.825C612.131 659.838 657.883 653.083 709.881 650.94C722.53 650.419 766.401 650.394 780.278 650.9C819.486 652.33 853.893 654.894 915.915 661.011L936.317 663.023L937.662 664.692C944.559 673.249 949.353 678.568 957.814 687.051C963.254 692.506 967.402 696.896 967.032 696.807C965.872 696.529 919.127 688.285 902.688 685.459C840.682 674.801 795.925 669.165 750.46 666.29C734.846 665.303 686.277 665.153 673.337 666.052C634.773 668.733 602.86 673.781 573.123 681.903C541.993 690.406 512.446 706.948 491.932 727.358C472.246 746.945 459.616 769.718 452.335 798.762C443.221 835.116 438.836 876.889 438.837 927.364C438.837 970.226 442.687 1027.1 448.295 1067.05C452.226 1095.06 458.561 1117.73 463.884 1122.83L465.126 1124.02L468.511 1123.37C479.577 1121.26 493.985 1114.04 532.768 1091.17C576.95 1065.13 594.89 1055.18 621.1 1042.18C692.524 1006.78 766.395 981.558 837.896 968.172C849.897 965.925 858.397 963.934 867.565 961.22C922.251 945.033 978.37 917.856 1027.56 883.735C1066.84 856.491 1095.96 830.132 1112.59 806.75C1122.84 792.345 1129.35 778.084 1130.1 768.348L1130.37 764.942L1148.58 764.915C1158.59 764.9 1169.11 764.7 1171.95 764.471C1174.78 764.242 1177.27 764.204 1177.49 764.387C1177.7 764.57 1177.87 768.422 1177.87 772.946C1177.89 790.097 1174.63 803.4 1166.33 820.187C1158.63 835.748 1149.65 848.136 1128.65 872.206C1116.61 885.996 1102.77 899.427 1084.07 915.459C1029.54 962.206 967.259 997.52 899.833 1019.93C882.198 1025.79 868.811 1029.4 855.607 1031.85C785.513 1044.85 723.279 1064.3 655.472 1094.38C629.905 1105.72 609.546 1115.9 563.034 1140.57C510.908 1168.23 490.705 1176.09 469.993 1176.78C456.564 1177.23 445.88 1174.2 435.819 1167.1C429.725 1162.79 427.017 1159.85 423.871 1154.12C411.265 1131.14 404.159 1109.55 401.423 1085.91C400.068 1074.2 399.708 1060.47 400.226 1040.15C400.493 1029.67 400.585 1013.32 400.43 1003.82C400.143 986.185 400.579 969.536 401.869 948.89C405.387 892.562 413.924 843.954 427.4 803.513C438.455 770.336 452.26 747.28 474.225 725.313C485.758 713.779 496.073 705.716 510.348 697.08C527.019 686.994 550.775 676.661 568.415 671.825ZM527.387 1215.44L534.113 1212.63L540.839 1209.82L541.117 1224.42C541.4 1239.31 541.73 1244.07 543.32 1256.2C548.7 1297.25 563.698 1336.84 586.843 1371.1C617.755 1416.85 661.096 1448.75 708.328 1460.49C760.515 1473.47 819.176 1465 876.815 1436.17C891.296 1428.93 921.277 1415.32 939.723 1407.63C1008.1 1379.1 1059.54 1365.3 1116.35 1360.24C1125.18 1359.46 1162.77 1359.46 1171.27 1360.24C1201.16 1363.01 1229.07 1368.82 1247.5 1376.12C1272.13 1385.87 1295.97 1404.14 1312.26 1425.73C1323.87 1441.13 1332.34 1460.89 1334.77 1478.27C1335.66 1484.62 1335.54 1499.32 1334.55 1505.41C1326.34 1555.83 1286.75 1592.45 1226.94 1604.97C1210.61 1608.38 1199.95 1609.22 1172.86 1609.22C1161.37 1609.22 1148.75 1609.43 1144.81 1609.68C1094.44 1612.89 1056.3 1625.43 1027.56 1648.22C1021.59 1652.96 1011.26 1663.27 1006.66 1669.09C996.494 1681.96 988.069 1700.62 981.214 1721.55C966.945 1749.57 967.364 1722.89 970.59 1713.25C976.674 1695.09 983.663 1680.65 993.742 1665.43C1006.42 1646.29 1023.8 1630.16 1044.6 1618.22C1069.64 1603.86 1099.73 1594.47 1135.18 1589.97C1146.81 1588.5 1157.87 1587.71 1176.65 1587.02C1186.52 1586.65 1196.91 1586.05 1199.75 1585.68C1235.36 1580.99 1264.51 1567.82 1283.84 1547.68C1290.18 1541.08 1294.05 1535.62 1297.9 1527.83C1308.96 1505.47 1309.13 1483.18 1298.4 1461.01C1286.88 1437.22 1262.08 1416.21 1233.37 1405.94C1223.71 1402.47 1207.68 1398.75 1193.69 1396.71C1119.78 1385.92 1034.89 1403.89 926.004 1453.39C910.908 1460.25 896.356 1467.14 892.823 1469.09C891.344 1469.91 887.308 1471.88 883.856 1473.47C803.922 1510.24 712.985 1506.83 649.797 1464.67C605.855 1435.36 571.465 1392.13 550.329 1339.62C535.902 1303.79 527.763 1263.2 527.467 1225.61L527.387 1215.44Z" fill="#F7F3EA"/>
</svg>
